<svg width="257" height="256" viewBox="0 0 257 256" fill="none" xmlns="http://www.w3.org/2000/svg">
<circle cx="128" cy="128" r="128" fill="#F4E2FF"/>
<path d="M8 138.813C31.9186 72.5298 86.1534 19.8906 153.845 40.5507C201.079 54.9674 181.264 81.8325 199.619 99.4942C209.975 107.462 238.091 96.7677 245.363 106.715C251.792 115.512 247.147 131.562 245.363 142.098C238.326 183.64 190.704 189.755 150.357 189.755" stroke="black" stroke-opacity="0.9" stroke-width="15.28" stroke-linecap="round" stroke-linejoin="round"/>
<path d="M247.705 121.95C244.38 115.639 236.791 109.74 227.65 104.76" stroke="black" stroke-opacity="0.9" stroke-width="15.28" stroke-linecap="round" stroke-linejoin="round"/>
<path d="M63.6212 109.745C61.2204 122.817 24.2094 211.857 62.5258 219.442C133.686 229.607 125.145 148.662 125.145 98.0751" stroke="black" stroke-opacity="0.9" stroke-width="15.28" stroke-linecap="round" stroke-linejoin="round"/>
<path d="M160.8 97.1201V101.895" stroke="black" stroke-opacity="0.9" stroke-width="15.28" stroke-linecap="round" stroke-linejoin="round"/>
</svg>
